# File created by Blade
# Date/Time:  Tue Sep 30 19:15:05 2014
# Frame Rate: 120.000 fps
#------------------------------------------------------
:FULLY-SPECIFIED
:DEGREES
1514
root -2.278496 33.129534 -3.534993 2.726492 3.197364 -14.976836
Spine -3.393239 2.457971 14.127077
Head -2.895810 -15.085948 11.918197
LeftShoulder 17.880050 8.197439 19.446903
LeftArm 11.302141 -30.052403 -73.833741
LeftForeArm -121.068829 3.482737 -2.096110
LeftHand -0.000051 30.971184 8.734449
LeftHandThumb1 30.357831 13.997178 22.438692
RightShoulder -9.993306 -21.999589 -17.620857
RightArm 10.755172 -15.832191 74.605321
RightForeArm 27.145881 -13.306873 24.175215
RightHand 0.000023 -7.800886 13.820222
RightHandThumb1 30.482666 -12.916435 -20.793814
LeftUpLeg -12.314996 5.340706 8.193478
LeftLeg 21.398800 -0.000000 -0.000000
LeftFoot -17.938776 8.187780 -3.763553
LeftToeBase 1.058200 0.000000 0.000000
RightUpLeg -87.364773 -10.644723 3.091953
RightLeg 113.756599 -0.000000 0.000000
RightFoot 25.982741 -14.562491 -7.222716
RightToeBase 14.160900 -0.000000 -0.000000
1515
root -2.242096 33.132433 -3.551393 2.894870 2.890011 -14.922255
Spine -3.432219 2.454115 14.084329
Head -3.113014 -15.157134 12.015413
LeftShoulder 17.934229 8.048222 19.420057
LeftArm 11.348257 -29.843271 -73.887166
LeftForeArm -121.037540 3.806691 -2.287785
LeftHand -0.000018 31.052066 9.265714
LeftHandThumb1 30.357831 13.997178 22.438692
RightShoulder -9.991914 -21.999139 -17.591275
RightArm 10.799921 -15.429700 74.482697
RightForeArm 27.157252 -13.438991 24.372987
RightHand 0.000044 -7.622266 13.514492
RightHandThumb1 30.482666 -12.916435 -20.793814
LeftUpLeg -12.360840 5.632611 8.060599
LeftLeg 21.247299 0.000000 0.000000
LeftFoot -17.912787 8.232025 -3.899870
LeftToeBase 1.351300 -0.000000 -0.000000
RightUpLeg -87.199449 -11.046804 2.980424
RightLeg 113.741997 0.000000 0.000000
RightFoot 26.069805 -14.598485 -7.016196
RightToeBase 14.090200 0.000000 0.000000
1516
root -2.216595 33.139235 -3.564393 3.026000 2.515529 -14.959100
Spine -3.403706 2.478548 14.123136
Head -3.359928 -15.167661 12.142570
LeftShoulder 17.970258 7.973049 19.374280
LeftArm 11.385234 -29.653980 -73.937963
LeftForeArm -121.000447 4.236997 -2.541901
LeftHand 0.000019 31.232397 10.009763
LeftHandThumb1 30.357831 13.997178 22.438692
RightShoulder -10.186715 -21.913697 -17.488478
RightArm 10.688061 -15.203374 74.292292
RightForeArm 27.290670 -13.579229 24.469267
RightHand -0.000005 -7.684061 13.494359
RightHandThumb1 30.482666 -12.916435 -20.793814
LeftUpLeg -12.366920 6.143274 8.035955
LeftLeg 21.112000 -0.000000 -0.000000
LeftFoot -17.795278 8.112973 -4.072087
LeftToeBase 1.162400 -0.000000 -0.000000
RightUpLeg -86.991740 -11.358848 2.974922
RightLeg 113.707603 -0.000000 -0.000000
RightFoot 26.171313 -14.886778 -6.664613
RightToeBase 14.227500 -0.000000 -0.000000
1517
root -2.191095 33.145335 -3.577493 3.190351 2.137135 -15.024211
Spine -3.427593 2.493548 14.190638
Head -3.583128 -15.159961 12.268649
LeftShoulder 18.047746 7.868902 19.373132
LeftArm 11.360043 -29.411431 -74.112534
LeftForeArm -121.025319 4.901122 -2.941658
LeftHand 0.000002 31.345552 10.777981
LeftHandThumb1 30.357831 13.997178 22.438692
RightShoulder -10.343486 -21.799037 -17.442657
RightArm 10.643508 -14.968275 74.106092
RightForeArm 27.464371 -13.664329 24.441304
RightHand 0.000001 -7.653485 13.346186
RightHandThumb1 30.482666 -12.916435 -20.793814
LeftUpLeg -12.396985 6.543318 8.050593
LeftLeg 20.975401 -0.000000 0.000000
LeftFoot -17.797539 8.141720 -4.438841
LeftToeBase 1.246600 0.000000 0.000000
RightUpLeg -86.835006 -11.744943 3.077270
RightLeg 113.687302 -0.000000 -0.000000
RightFoot 26.313508 -15.011083 -6.669427
RightToeBase 14.119400 -0.000000 -0.000000
1518
root -2.147496 33.145735 -3.589093 3.365295 1.725542 -14.946399
Spine -3.462387 2.543280 14.115621
Head -3.771925 -15.171576 12.358379
LeftShoulder 18.074428 7.809822 19.363121
LeftArm 11.285400 -29.167662 -74.338442
LeftForeArm -121.008468 5.566596 -3.336829
LeftHand -0.000066 31.512100 11.444746
LeftHandThumb1 30.357831 13.997178 22.438692
RightShoulder -10.568565 -21.724724 -17.435425
RightArm 10.680495 -14.747441 73.917394
RightForeArm 27.592554 -13.703020 24.383408
RightHand -0.000019 -7.626873 13.388957
RightHandThumb1 30.482666 -12.916435 -20.793814
LeftUpLeg -12.423446 7.017621 7.869525
LeftLeg 20.830200 -0.000000 0.000000
LeftFoot -17.805281 8.177974 -4.820666
LeftToeBase 1.482000 -0.000000 -0.000000
RightUpLeg -86.705929 -12.171155 2.988494
RightLeg 113.709602 -0.000000 -0.000000
RightFoot 26.317370 -15.188598 -6.517847
RightToeBase 14.317900 0.000000 0.000000
1519
root -2.112796 33.150835 -3.597793 3.545191 1.300615 -14.945273
Spine -3.512469 2.576265 14.109692
Head -3.919569 -15.220536 12.428369
LeftShoulder 18.087812 7.760919 19.347193
LeftArm 11.145732 -28.850705 -74.612907
LeftForeArm -121.035970 6.345362 -3.804700
LeftHand 0.000035 31.665518 12.130179
LeftHandThumb1 30.357831 13.997178 22.438692
RightShoulder -10.763481 -21.620252 -17.411018
RightArm 10.670040 -14.511653 73.722400
RightForeArm 27.833121 -13.803228 24.317704
RightHand -0.000058 -7.744051 13.396807
RightHandThumb1 30.482666 -12.916435 -20.793814
LeftUpLeg -12.438365 7.412452 7.794524
LeftLeg 20.664301 -0.000000 -0.000000
LeftFoot -17.824010 8.222207 -5.142914
LeftToeBase 1.834800 0.000000 0.000000
RightUpLeg -86.571634 -12.655187 3.013873
RightLeg 113.726402 0.000000 0.000000
RightFoot 26.195075 -15.398464 -6.269550
RightToeBase 14.794600 -0.000000 -0.000000
1520
root -2.078396 33.155432 -3.603893 3.727457 0.844567 -14.948605
Spine -3.568678 2.649034 14.096566
Head -4.045981 -15.264416 12.523146
LeftShoulder 18.054937 7.743357 19.327725
LeftArm 10.894614 -28.526107 -74.934203
LeftForeArm -121.033257 6.883485 -4.124361
LeftHand -0.000045 32.017356 12.386782
LeftHandThumb1 30.357831 13.997178 22.438692
RightShoulder -10.928185 -21.539511 -17.403084
RightArm 10.683358 -14.240674 73.534756
RightForeArm 28.010642 -13.888785 24.286974
RightHand -0.000021 -7.722493 13.295494
RightHandThumb1 30.482666 -12.916435 -20.793814
LeftUpLeg -12.440816 7.841751 7.715087
LeftLeg 20.505501 -0.000000 -0.000000
LeftFoot -17.868273 8.294520 -5.512367
LeftToeBase 2.003200 -0.000000 0.000000
RightUpLeg -86.461463 -13.126473 3.058919
RightLeg 113.730904 0.000000 0.000000
RightFoot 26.160470 -15.645542 -6.071228
RightToeBase 14.887800 -0.000000 -0.000000
1521
root -2.011296 33.150534 -3.617893 3.981723 0.287044 -14.711348
Spine -3.684195 2.786487 13.836541
Head -4.158868 -15.299180 12.583492
LeftShoulder 18.117266 7.758144 19.340236
LeftArm 10.552473 -28.239819 -75.315193
LeftForeArm -120.994101 7.236992 -4.327611
LeftHand -0.000006 32.043131 12.694645
LeftHandThumb1 30.357831 13.997178 22.438692
RightShoulder -11.063675 -21.441373 -17.428782
RightArm 10.687635 -13.919255 73.375492
RightForeArm 28.140996 -14.047298 24.408433
RightHand 0.000025 -7.640650 13.164429
RightHandThumb1 30.482666 -12.916435 -20.793814
LeftUpLeg -12.492259 8.115119 7.342642
LeftLeg 20.307100 0.000000 0.000000
LeftFoot -17.818042 8.535254 -5.755066
LeftToeBase 1.825800 -0.000000 0.000000
RightUpLeg -86.478639 -13.614647 2.862812
RightLeg 113.736900 -0.000000 0.000000
RightFoot 26.216127 -15.747063 -6.176423
RightToeBase 14.352400 -0.000000 -0.000000
1522
root -1.958696 33.149332 -3.627993 4.198649 -0.270238 -14.582358
Spine -3.760873 2.935188 13.666972
Head -4.268611 -15.351561 12.690736
LeftShoulder 18.035656 7.772635 19.353658
LeftArm 10.216899 -27.823291 -75.734604
LeftForeArm -120.970018 7.680818 -4.586020
LeftHand 0.000007 32.170016 12.721848
LeftHandThumb1 30.357831 13.997178 22.438692
RightShoulder -11.276005 -21.364422 -17.390451
RightArm 10.574700 -13.614554 73.154210
RightForeArm 28.448013 -14.042865 24.126183
RightHand 0.000031 -7.752407 13.434924
RightHandThumb1 30.482666 -12.916435 -20.793814
LeftUpLeg -12.526290 8.380320 7.113669
LeftLeg 20.174299 0.000000 0.000000
LeftFoot -17.819499 8.721154 -6.232107
LeftToeBase 1.808900 -0.000000 0.000000
RightUpLeg -86.458778 -14.119150 2.817443
RightLeg 113.756104 -0.000000 -0.000000
RightFoot 26.194178 -15.819663 -6.295138
RightToeBase 14.420700 -0.000000 0.000000
